<mxfile host="drawio-plugin" modified="2021-07-18T04:24:04.636Z" agent="5.0 (Macintosh; Intel Mac OS X 11_4_0) AppleWebKit/537.36 (KHTML, like Gecko) Chrome/89.0.4389.90 Safari/537.36" etag="St6QecJILUGFR8JmcmU8" version="14.7.4" type="embed"><diagram id="XK3sjVT5d-Bfbds4p5KX" name="Page-1"><mxGraphModel dx="895" dy="760" grid="1" gridSize="10" guides="1" tooltips="1" connect="1" arrows="1" fold="1" page="1" pageScale="1" pageWidth="827" pageHeight="1169" math="0" shadow="0"><root><mxCell id="0"/><mxCell id="1" parent="0"/><mxCell id="MWndkHljGofVuchwJMTL-4" style="edgeStyle=orthogonalEdgeStyle;rounded=0;orthogonalLoop=1;jettySize=auto;html=1;" parent="1" source="U9Y92B9fXka0Vq4R8FHK-1" target="MWndkHljGofVuchwJMTL-1" edge="1"><mxGeometry relative="1" as="geometry"/></mxCell><mxCell id="MWndkHljGofVuchwJMTL-6" style="edgeStyle=orthogonalEdgeStyle;rounded=0;orthogonalLoop=1;jettySize=auto;html=1;" parent="1" source="U9Y92B9fXka0Vq4R8FHK-1" target="MWndkHljGofVuchwJMTL-2" edge="1"><mxGeometry relative="1" as="geometry"/></mxCell><mxCell id="U9Y92B9fXka0Vq4R8FHK-1" value="Logger @ INFO" style="rounded=1;whiteSpace=wrap;html=1;" parent="1" vertex="1"><mxGeometry x="40" y="90" width="120" height="60" as="geometry"/></mxCell><mxCell id="MWndkHljGofVuchwJMTL-8" style="edgeStyle=orthogonalEdgeStyle;rounded=0;orthogonalLoop=1;jettySize=auto;html=1;" parent="1" source="MWndkHljGofVuchwJMTL-1" target="MWndkHljGofVuchwJMTL-3" edge="1"><mxGeometry relative="1" as="geometry"/></mxCell><mxCell id="MWndkHljGofVuchwJMTL-1" value="info(&quot;message&quot;)" style="shape=process;whiteSpace=wrap;html=1;backgroundOutline=1;" parent="1" vertex="1"><mxGeometry x="200" y="20" width="140" height="60" as="geometry"/></mxCell><mxCell id="MWndkHljGofVuchwJMTL-10" style="edgeStyle=orthogonalEdgeStyle;rounded=0;orthogonalLoop=1;jettySize=auto;html=1;" parent="1" source="MWndkHljGofVuchwJMTL-2" target="MWndkHljGofVuchwJMTL-9" edge="1"><mxGeometry relative="1" as="geometry"/></mxCell><mxCell id="MWndkHljGofVuchwJMTL-2" value="info { &quot;message&quot; }" style="shape=process;whiteSpace=wrap;html=1;backgroundOutline=1;" parent="1" vertex="1"><mxGeometry x="200" y="160" width="140" height="60" as="geometry"/></mxCell><mxCell id="MWndkHljGofVuchwJMTL-3" value="Dispatcher" style="rounded=1;whiteSpace=wrap;html=1;" parent="1" vertex="1"><mxGeometry x="540" y="90" width="120" height="60" as="geometry"/></mxCell><mxCell id="MWndkHljGofVuchwJMTL-12" value="Yes" style="edgeStyle=orthogonalEdgeStyle;rounded=0;orthogonalLoop=1;jettySize=auto;html=1;entryX=0.5;entryY=1;entryDx=0;entryDy=0;" parent="1" source="MWndkHljGofVuchwJMTL-9" target="MWndkHljGofVuchwJMTL-3" edge="1"><mxGeometry relative="1" as="geometry"/></mxCell><mxCell id="MWndkHljGofVuchwJMTL-9" value="isInfoEnabled()" style="rhombus;whiteSpace=wrap;html=1;" parent="1" vertex="1"><mxGeometry x="383" y="140" width="116" height="100" as="geometry"/></mxCell></root></mxGraphModel></diagram></mxfile>